<mxfile host="app.diagrams.net" modified="2021-03-23T08:56:27.331Z" agent="5.0 (Windows NT 10.0; Win64; x64) AppleWebKit/537.36 (KHTML, like Gecko) Chrome/88.0.4324.190 Safari/537.36" etag="Ojt1QkYIzQCxbpv8SAUS" version="14.4.9" type="github">
  <diagram id="nn2lzpv5OCp4VKNxVNc3" name="Page-1">
    <mxGraphModel dx="1422" dy="774" grid="1" gridSize="10" guides="1" tooltips="1" connect="1" arrows="1" fold="1" page="1" pageScale="1" pageWidth="827" pageHeight="1169" math="0" shadow="0">
      <root>
        <mxCell id="0" />
        <mxCell id="1" parent="0" />
        <mxCell id="Bvz3YuySUqPJ2A2uFu7H-10" value="企微群流程" style="swimlane;html=1;childLayout=stackLayout;resizeParent=1;resizeParentMax=0;startSize=20;" vertex="1" parent="1">
          <mxGeometry x="40" y="24" width="610" height="800" as="geometry" />
        </mxCell>
        <mxCell id="Bvz3YuySUqPJ2A2uFu7H-11" value="用户" style="swimlane;html=1;startSize=20;" vertex="1" parent="Bvz3YuySUqPJ2A2uFu7H-10">
          <mxGeometry y="20" width="170" height="780" as="geometry" />
        </mxCell>
        <mxCell id="Bvz3YuySUqPJ2A2uFu7H-16" value="创建客户群" style="shape=ext;rounded=1;html=1;whiteSpace=wrap;" vertex="1" parent="Bvz3YuySUqPJ2A2uFu7H-11">
          <mxGeometry x="30" y="45" width="70" height="40" as="geometry" />
        </mxCell>
        <mxCell id="Bvz3YuySUqPJ2A2uFu7H-34" value="解散群" style="shape=ext;rounded=1;html=1;whiteSpace=wrap;" vertex="1" parent="Bvz3YuySUqPJ2A2uFu7H-11">
          <mxGeometry x="30" y="250" width="70" height="40" as="geometry" />
        </mxCell>
        <mxCell id="Bvz3YuySUqPJ2A2uFu7H-47" value="加入群" style="shape=ext;rounded=1;html=1;whiteSpace=wrap;" vertex="1" parent="Bvz3YuySUqPJ2A2uFu7H-11">
          <mxGeometry x="30" y="494.75" width="70" height="40" as="geometry" />
        </mxCell>
        <mxCell id="Bvz3YuySUqPJ2A2uFu7H-48" value="退出群" style="shape=ext;rounded=1;html=1;whiteSpace=wrap;" vertex="1" parent="Bvz3YuySUqPJ2A2uFu7H-11">
          <mxGeometry x="30" y="566" width="70" height="40" as="geometry" />
        </mxCell>
        <mxCell id="Bvz3YuySUqPJ2A2uFu7H-49" value="群名称变更" style="shape=ext;rounded=1;html=1;whiteSpace=wrap;" vertex="1" parent="Bvz3YuySUqPJ2A2uFu7H-11">
          <mxGeometry x="30" y="634.75" width="70" height="40" as="geometry" />
        </mxCell>
        <mxCell id="Bvz3YuySUqPJ2A2uFu7H-19" value="" style="edgeStyle=orthogonalEdgeStyle;rounded=0;orthogonalLoop=1;jettySize=auto;html=1;" edge="1" parent="Bvz3YuySUqPJ2A2uFu7H-10" source="Bvz3YuySUqPJ2A2uFu7H-16" target="Bvz3YuySUqPJ2A2uFu7H-18">
          <mxGeometry relative="1" as="geometry" />
        </mxCell>
        <mxCell id="Bvz3YuySUqPJ2A2uFu7H-26" value="" style="edgeStyle=orthogonalEdgeStyle;rounded=0;orthogonalLoop=1;jettySize=auto;html=1;" edge="1" parent="Bvz3YuySUqPJ2A2uFu7H-10" source="Bvz3YuySUqPJ2A2uFu7H-18" target="Bvz3YuySUqPJ2A2uFu7H-25">
          <mxGeometry relative="1" as="geometry" />
        </mxCell>
        <mxCell id="Bvz3YuySUqPJ2A2uFu7H-13" value="企微服务端" style="swimlane;html=1;startSize=20;" vertex="1" parent="Bvz3YuySUqPJ2A2uFu7H-10">
          <mxGeometry x="170" y="20" width="220" height="780" as="geometry" />
        </mxCell>
        <mxCell id="Bvz3YuySUqPJ2A2uFu7H-18" value="触发群创建事件" style="whiteSpace=wrap;html=1;rounded=1;" vertex="1" parent="Bvz3YuySUqPJ2A2uFu7H-13">
          <mxGeometry x="54" y="43.75" width="90" height="42.5" as="geometry" />
        </mxCell>
        <mxCell id="Bvz3YuySUqPJ2A2uFu7H-27" value="群Id" style="text;html=1;strokeColor=none;fillColor=none;align=center;verticalAlign=middle;whiteSpace=wrap;rounded=0;" vertex="1" parent="Bvz3YuySUqPJ2A2uFu7H-13">
          <mxGeometry x="164" y="43.75" width="40" height="20" as="geometry" />
        </mxCell>
        <mxCell id="Bvz3YuySUqPJ2A2uFu7H-35" value="触发解散群事件" style="shape=ext;rounded=1;html=1;whiteSpace=wrap;" vertex="1" parent="Bvz3YuySUqPJ2A2uFu7H-13">
          <mxGeometry x="54" y="250" width="90" height="40" as="geometry" />
        </mxCell>
        <mxCell id="Bvz3YuySUqPJ2A2uFu7H-39" value="群Id" style="text;html=1;strokeColor=none;fillColor=none;align=center;verticalAlign=middle;whiteSpace=wrap;rounded=0;" vertex="1" parent="Bvz3YuySUqPJ2A2uFu7H-13">
          <mxGeometry x="164" y="250" width="40" height="20" as="geometry" />
        </mxCell>
        <mxCell id="Bvz3YuySUqPJ2A2uFu7H-50" value="群变更事件" style="shape=ext;rounded=1;html=1;whiteSpace=wrap;" vertex="1" parent="Bvz3YuySUqPJ2A2uFu7H-13">
          <mxGeometry x="64" y="566" width="76" height="40" as="geometry" />
        </mxCell>
        <mxCell id="Bvz3YuySUqPJ2A2uFu7H-22" value="企微后台创建" style="text;html=1;strokeColor=none;fillColor=none;align=center;verticalAlign=middle;whiteSpace=wrap;rounded=0;" vertex="1" parent="Bvz3YuySUqPJ2A2uFu7H-13">
          <mxGeometry x="-40" y="43.75" width="80" height="20" as="geometry" />
        </mxCell>
        <mxCell id="Bvz3YuySUqPJ2A2uFu7H-58" value="群Id" style="text;html=1;strokeColor=none;fillColor=none;align=center;verticalAlign=middle;whiteSpace=wrap;rounded=0;" vertex="1" parent="Bvz3YuySUqPJ2A2uFu7H-13">
          <mxGeometry x="170" y="566" width="40" height="20" as="geometry" />
        </mxCell>
        <mxCell id="Bvz3YuySUqPJ2A2uFu7H-36" value="" style="edgeStyle=orthogonalEdgeStyle;rounded=0;orthogonalLoop=1;jettySize=auto;html=1;" edge="1" parent="Bvz3YuySUqPJ2A2uFu7H-10" source="Bvz3YuySUqPJ2A2uFu7H-34" target="Bvz3YuySUqPJ2A2uFu7H-35">
          <mxGeometry relative="1" as="geometry" />
        </mxCell>
        <mxCell id="Bvz3YuySUqPJ2A2uFu7H-38" value="" style="edgeStyle=orthogonalEdgeStyle;rounded=0;orthogonalLoop=1;jettySize=auto;html=1;" edge="1" parent="Bvz3YuySUqPJ2A2uFu7H-10" source="Bvz3YuySUqPJ2A2uFu7H-35" target="Bvz3YuySUqPJ2A2uFu7H-37">
          <mxGeometry relative="1" as="geometry" />
        </mxCell>
        <mxCell id="Bvz3YuySUqPJ2A2uFu7H-51" value="" style="edgeStyle=orthogonalEdgeStyle;rounded=0;orthogonalLoop=1;jettySize=auto;html=1;" edge="1" parent="Bvz3YuySUqPJ2A2uFu7H-10" source="Bvz3YuySUqPJ2A2uFu7H-47" target="Bvz3YuySUqPJ2A2uFu7H-50">
          <mxGeometry relative="1" as="geometry">
            <Array as="points">
              <mxPoint x="140" y="536" />
              <mxPoint x="140" y="606" />
            </Array>
          </mxGeometry>
        </mxCell>
        <mxCell id="Bvz3YuySUqPJ2A2uFu7H-53" style="edgeStyle=orthogonalEdgeStyle;rounded=0;orthogonalLoop=1;jettySize=auto;html=1;" edge="1" parent="Bvz3YuySUqPJ2A2uFu7H-10" source="Bvz3YuySUqPJ2A2uFu7H-49">
          <mxGeometry relative="1" as="geometry">
            <mxPoint x="234" y="606" as="targetPoint" />
            <Array as="points">
              <mxPoint x="140" y="676" />
              <mxPoint x="140" y="606" />
            </Array>
          </mxGeometry>
        </mxCell>
        <mxCell id="Bvz3YuySUqPJ2A2uFu7H-12" value="私域服务端" style="swimlane;html=1;startSize=20;" vertex="1" parent="Bvz3YuySUqPJ2A2uFu7H-10">
          <mxGeometry x="390" y="20" width="220" height="780" as="geometry" />
        </mxCell>
        <mxCell id="Bvz3YuySUqPJ2A2uFu7H-25" value="拉取群详情" style="whiteSpace=wrap;html=1;rounded=1;" vertex="1" parent="Bvz3YuySUqPJ2A2uFu7H-12">
          <mxGeometry x="65" y="43.75" width="90" height="42.5" as="geometry" />
        </mxCell>
        <mxCell id="Bvz3YuySUqPJ2A2uFu7H-29" value="" style="edgeStyle=orthogonalEdgeStyle;rounded=0;orthogonalLoop=1;jettySize=auto;html=1;entryX=0.5;entryY=0;entryDx=0;entryDy=0;" edge="1" parent="Bvz3YuySUqPJ2A2uFu7H-12" source="Bvz3YuySUqPJ2A2uFu7H-25" target="Bvz3YuySUqPJ2A2uFu7H-30">
          <mxGeometry relative="1" as="geometry">
            <mxPoint x="110" y="126" as="targetPoint" />
          </mxGeometry>
        </mxCell>
        <mxCell id="Bvz3YuySUqPJ2A2uFu7H-30" value="" style="shape=datastore;whiteSpace=wrap;html=1;" vertex="1" parent="Bvz3YuySUqPJ2A2uFu7H-12">
          <mxGeometry x="80" y="136" width="60" height="60" as="geometry" />
        </mxCell>
        <mxCell id="Bvz3YuySUqPJ2A2uFu7H-31" value="DB" style="text;html=1;strokeColor=none;fillColor=none;align=center;verticalAlign=middle;whiteSpace=wrap;rounded=0;" vertex="1" parent="Bvz3YuySUqPJ2A2uFu7H-12">
          <mxGeometry x="90" y="166" width="40" height="20" as="geometry" />
        </mxCell>
        <mxCell id="Bvz3YuySUqPJ2A2uFu7H-33" value="群信息入库" style="text;html=1;strokeColor=none;fillColor=none;align=center;verticalAlign=middle;whiteSpace=wrap;rounded=0;" vertex="1" parent="Bvz3YuySUqPJ2A2uFu7H-12">
          <mxGeometry x="110" y="96" width="70" height="20" as="geometry" />
        </mxCell>
        <mxCell id="Bvz3YuySUqPJ2A2uFu7H-37" value="更新群状态" style="shape=ext;rounded=1;html=1;whiteSpace=wrap;" vertex="1" parent="Bvz3YuySUqPJ2A2uFu7H-12">
          <mxGeometry x="65" y="250" width="90" height="40" as="geometry" />
        </mxCell>
        <mxCell id="Bvz3YuySUqPJ2A2uFu7H-40" value="" style="shape=datastore;whiteSpace=wrap;html=1;" vertex="1" parent="Bvz3YuySUqPJ2A2uFu7H-12">
          <mxGeometry x="80" y="336" width="60" height="60" as="geometry" />
        </mxCell>
        <mxCell id="Bvz3YuySUqPJ2A2uFu7H-41" value="DB" style="text;html=1;strokeColor=none;fillColor=none;align=center;verticalAlign=middle;whiteSpace=wrap;rounded=0;" vertex="1" parent="Bvz3YuySUqPJ2A2uFu7H-12">
          <mxGeometry x="90" y="376" width="40" height="20" as="geometry" />
        </mxCell>
        <mxCell id="Bvz3YuySUqPJ2A2uFu7H-43" value="" style="edgeStyle=orthogonalEdgeStyle;rounded=0;orthogonalLoop=1;jettySize=auto;html=1;" edge="1" parent="Bvz3YuySUqPJ2A2uFu7H-12" source="Bvz3YuySUqPJ2A2uFu7H-37" target="Bvz3YuySUqPJ2A2uFu7H-40">
          <mxGeometry relative="1" as="geometry">
            <mxPoint x="70.00000000000023" y="396" as="targetPoint" />
          </mxGeometry>
        </mxCell>
        <mxCell id="Bvz3YuySUqPJ2A2uFu7H-46" value="更新" style="text;html=1;strokeColor=none;fillColor=none;align=center;verticalAlign=middle;whiteSpace=wrap;rounded=0;" vertex="1" parent="Bvz3YuySUqPJ2A2uFu7H-12">
          <mxGeometry x="110" y="306" width="40" height="20" as="geometry" />
        </mxCell>
        <mxCell id="Bvz3YuySUqPJ2A2uFu7H-54" value="拉去群详情" style="shape=ext;rounded=1;html=1;whiteSpace=wrap;" vertex="1" parent="Bvz3YuySUqPJ2A2uFu7H-12">
          <mxGeometry x="75" y="566" width="70" height="40" as="geometry" />
        </mxCell>
        <mxCell id="Bvz3YuySUqPJ2A2uFu7H-118" value="更新群相关信息" style="text;html=1;strokeColor=none;fillColor=none;align=center;verticalAlign=middle;whiteSpace=wrap;rounded=0;" vertex="1" parent="Bvz3YuySUqPJ2A2uFu7H-12">
          <mxGeometry x="110" y="626" width="90" height="20" as="geometry" />
        </mxCell>
        <mxCell id="Bvz3YuySUqPJ2A2uFu7H-119" value="&lt;ul&gt;&lt;li&gt;群基本信息&lt;/li&gt;&lt;li&gt;群人数&lt;/li&gt;&lt;li&gt;当天出入群统计&lt;/li&gt;&lt;/ul&gt;" style="text;strokeColor=none;fillColor=none;html=1;whiteSpace=wrap;verticalAlign=middle;overflow=hidden;" vertex="1" parent="Bvz3YuySUqPJ2A2uFu7H-12">
          <mxGeometry x="45" y="656" width="130" height="100" as="geometry" />
        </mxCell>
        <mxCell id="Bvz3YuySUqPJ2A2uFu7H-52" style="edgeStyle=orthogonalEdgeStyle;rounded=0;orthogonalLoop=1;jettySize=auto;html=1;entryX=0;entryY=0.5;entryDx=0;entryDy=0;" edge="1" parent="Bvz3YuySUqPJ2A2uFu7H-10" source="Bvz3YuySUqPJ2A2uFu7H-48" target="Bvz3YuySUqPJ2A2uFu7H-50">
          <mxGeometry relative="1" as="geometry">
            <mxPoint x="230" y="606" as="targetPoint" />
            <Array as="points">
              <mxPoint x="165" y="605" />
            </Array>
          </mxGeometry>
        </mxCell>
        <mxCell id="Bvz3YuySUqPJ2A2uFu7H-57" style="edgeStyle=orthogonalEdgeStyle;rounded=0;orthogonalLoop=1;jettySize=auto;html=1;entryX=0;entryY=0.5;entryDx=0;entryDy=0;" edge="1" parent="Bvz3YuySUqPJ2A2uFu7H-10" source="Bvz3YuySUqPJ2A2uFu7H-50" target="Bvz3YuySUqPJ2A2uFu7H-54">
          <mxGeometry relative="1" as="geometry" />
        </mxCell>
        <mxCell id="Bvz3YuySUqPJ2A2uFu7H-117" value="" style="edgeStyle=orthogonalEdgeStyle;rounded=0;orthogonalLoop=1;jettySize=auto;html=1;" edge="1" parent="1" source="Bvz3YuySUqPJ2A2uFu7H-54">
          <mxGeometry relative="1" as="geometry">
            <mxPoint x="540.0000000000002" y="719.9999999999998" as="targetPoint" />
          </mxGeometry>
        </mxCell>
      </root>
    </mxGraphModel>
  </diagram>
</mxfile>
